<?xml version="1.0" encoding="UTF-8" standalone="no"?>
<!-- Created with Inkscape (http://www.inkscape.org/) -->

<svg
   xmlns:dc="http://purl.org/dc/elements/1.1/"
   xmlns:cc="http://creativecommons.org/ns#"
   xmlns:rdf="http://www.w3.org/1999/02/22-rdf-syntax-ns#"
   xmlns:svg="http://www.w3.org/2000/svg"
   xmlns="http://www.w3.org/2000/svg"
   xmlns:sodipodi="http://sodipodi.sourceforge.net/DTD/sodipodi-0.dtd"
   xmlns:inkscape="http://www.inkscape.org/namespaces/inkscape"
   id="svg9608"
   version="1.1"
   inkscape:version="0.91 r13725"
   xml:space="preserve"
   width="297mm"
   height="210mm"
   viewBox="0 0 1052.3622 744.0945"
   sodipodi:docname="coaching.svg"><metadata
     id="metadata9614"><rdf:RDF><cc:Work
         rdf:about=""><dc:format>image/svg+xml</dc:format><dc:type
           rdf:resource="http://purl.org/dc/dcmitype/StillImage" /><dc:title /></cc:Work></rdf:RDF></metadata><defs
     id="defs9612" /><sodipodi:namedview
     pagecolor="#ffffff"
     bordercolor="#666666"
     borderopacity="1"
     objecttolerance="10"
     gridtolerance="10"
     guidetolerance="10"
     inkscape:pageopacity="0"
     inkscape:pageshadow="2"
     inkscape:window-width="1920"
     inkscape:window-height="1024"
     id="namedview9610"
     showgrid="false"
     units="mm"
     inkscape:zoom="0.22425739"
     inkscape:cx="-125.44214"
     inkscape:cy="526.18109"
     inkscape:window-x="0"
     inkscape:window-y="19"
     inkscape:window-maximized="1"
     inkscape:current-layer="g9616" /><g
     id="g9616"
     inkscape:groupmode="layer"
     inkscape:label="coaching"
     transform="matrix(1.25,0,0,-1.25,0,744.09451)"><path
       inkscape:connector-curvature="0"
       id="path9620"
       style="fill:#a40000;fill-opacity:1;fill-rule:nonzero;stroke:none"
       d="m 159.4081,297.63648 c -18,-0.55467 -32.71867,-7.66134 -44.16934,-21.33067 l -22.330657,0 c -9.112,0 -16.776,2.25267 -23,6.75 -6.21867,4.50267 -9.33067,11.08333 -9.33067,19.75 0,39.22133 6.88533,58.83067 20.66133,58.83067 0.66934,0 3.08867,-1.16667 7.25,-3.49734 4.16934,-2.33333 9.58867,-4.69533 16.249997,-7.08333 6.66934,-2.38533 13.28134,-3.586 19.83867,-3.586 7.44267,0 14.83067,1.28133 22.16133,3.836 -0.54933,-4.112 -0.83066,-7.78133 -0.83066,-11 0,-15.44267 4.5,-29.66933 13.5,-42.66933 z m 178.5,-106.16134 c 0,-13.336 -4.05467,-23.862 -12.16934,-31.586 -8.104,-7.72133 -18.88533,-11.58333 -32.33066,-11.58333 l -145.66934,0 c -13.44266,0 -24.216,3.862 -32.33066,11.58333 -8.112,7.724 -12.16934,18.25 -12.16934,31.586 0,5.888 0.20067,11.638 0.58867,17.25 0.388,5.60667 1.164,11.66134 2.33067,18.164 1.16933,6.49734 2.638,12.53134 4.41933,18.086 1.77333,5.54934 4.16133,10.96867 7.16133,16.25 3,5.27334 6.45067,9.776 10.33867,13.5 3.888,3.71867 8.638,6.69534 14.25,8.91134 5.612,2.22666 11.80467,3.33866 18.58067,3.33866 1.112,0 3.5,-1.20066 7.16933,-3.58866 3.66133,-2.38534 7.71867,-5.05467 12.16133,-8 4.44534,-2.94267 10.396,-5.612 17.83867,-8 7.44533,-2.38534 14.94267,-3.58067 22.5,-3.58067 7.55467,0 15.05733,1.19533 22.5,3.58067 7.44533,2.388 13.38533,5.05733 17.83067,8 4.44266,2.94533 8.5,5.61466 12.16933,8 3.66133,2.388 6.05467,3.58866 7.16133,3.58866 6.78134,0 12.97667,-1.112 18.58867,-3.33866 5.60667,-2.216 10.35667,-5.19267 14.25,-8.91134 3.888,-3.724 7.33067,-8.22666 10.33067,-13.5 3,-5.28133 5.388,-10.70066 7.16933,-16.25 1.77333,-5.55466 3.25,-11.58866 4.414,-18.086 1.16667,-6.50266 1.94,-12.55733 2.336,-18.164 0.388,-5.612 0.58067,-11.362 0.58067,-17.25 z M 167.23876,404.30581 c 0,-11.78133 -4.16133,-21.836 -12.5,-30.16667 -8.33066,-8.33333 -18.388,-12.50266 -30.16133,-12.50266 -11.78133,0 -21.83867,4.16933 -30.169327,12.50266 -8.33067,8.33067 -12.5,18.38534 -12.5,30.16667 0,11.776 4.16933,21.83333 12.5,30.164 8.330657,8.336 18.387997,12.5 30.169327,12.5 11.77333,0 21.83067,-4.164 30.16133,-12.5 8.33867,-8.33067 12.5,-18.388 12.5,-30.164 z m 117.33867,-64 c 0,-17.66933 -6.25,-32.74733 -18.75,-45.25 -12.5,-12.49733 -27.58867,-18.75 -45.25,-18.75 -17.66933,0 -32.75,6.25267 -45.25,18.75 -12.5,12.50267 -18.75,27.58067 -18.75,45.25 0,17.664 6.25,32.75 18.75,45.25267 12.5,12.49733 27.58067,18.74733 45.25,18.74733 17.66133,0 32.75,-6.25 45.25,-18.74733 12.5,-12.50267 18.75,-27.58867 18.75,-45.25267 z m 96,-37.5 c 0,-8.66667 -3.11467,-15.24733 -9.33867,-19.75 -6.21866,-4.49733 -13.888,-6.75 -23,-6.75 l -22.33066,0 c -11.44534,13.66933 -26.16934,20.776 -44.16934,21.33067 9,13 13.5,27.22666 13.5,42.66933 0,3.21867 -0.27333,6.888 -0.83066,11 7.33066,-2.55467 14.724,-3.836 22.16933,-3.836 6.55467,0 13.16133,1.20067 19.83067,3.586 6.66933,2.388 12.08066,4.75 16.25,7.08333 4.16933,2.33067 6.58066,3.49734 7.25,3.49734 13.776,0 20.66933,-19.60934 20.66933,-58.83067 z m -21.33867,101.5 c 0,-11.78133 -4.16133,-21.836 -12.5,-30.16667 -8.33066,-8.33333 -18.388,-12.50266 -30.16133,-12.50266 -11.78133,0 -21.83867,4.16933 -30.16933,12.50266 -8.33067,8.33067 -12.5,18.38534 -12.5,30.16667 0,11.776 4.16933,21.83333 12.5,30.164 8.33066,8.336 18.388,12.5 30.16933,12.5 11.77333,0 21.83067,-4.164 30.16133,-12.5 8.33867,-8.33067 12.5,-18.388 12.5,-30.164 z" /><g
       id="g4180"
       transform="translate(-12.8,6.6340682)"><text
         transform="scale(1,-1)"
         sodipodi:linespacing="100%"
         id="text10390"
         y="-378.34979"
         x="466.194"
         style="font-style:normal;font-variant:normal;font-weight:normal;font-stretch:normal;font-size:90px;line-height:100%;font-family:'Linux Libertine O';-inkscape-font-specification:'Linux Libertine O';text-align:start;letter-spacing:0px;word-spacing:0px;writing-mode:lr-tb;text-anchor:start;fill:#000000;fill-opacity:1;stroke:none;stroke-width:1px;stroke-linecap:butt;stroke-linejoin:miter;stroke-opacity:1"
         xml:space="preserve"><tspan
           y="-378.34979"
           x="466.194"
           id="tspan10392"
           sodipodi:role="line">Coaching</tspan></text>
<text
         transform="scale(1,-1)"
         sodipodi:linespacing="100%"
         id="text10394"
         y="-310.3577"
         x="466.194"
         style="font-style:normal;font-variant:normal;font-weight:normal;font-stretch:normal;font-size:40px;line-height:100%;font-family:'Linux Libertine O';-inkscape-font-specification:'Linux Libertine O';text-align:start;letter-spacing:0px;word-spacing:0px;writing-mode:lr-tb;text-anchor:start;fill:#204a87;fill-opacity:1;stroke:none;stroke-width:1px;stroke-linecap:butt;stroke-linejoin:miter;stroke-opacity:1"
         xml:space="preserve"><tspan
           y="-310.3577"
           x="466.194"
           id="tspan10396"
           sodipodi:role="line">Agile</tspan><tspan
           id="tspan10398"
           y="-270.3577"
           x="466.194"
           sodipodi:role="line">Devops</tspan><tspan
           id="tspan10400"
           y="-230.3577"
           x="466.194"
           sodipodi:role="line">Lean</tspan><tspan
           id="tspan10402"
           y="-190.3577"
           x="466.194"
           sodipodi:role="line">Leadership</tspan><tspan
           id="tspan10404"
           y="-150.3577"
           x="466.194"
           sodipodi:role="line">Management 3.0</tspan></text>
</g></g></svg>