<?xml version="1.0" encoding="UTF-8" standalone="no"?>
<!-- Created with Inkscape (http://www.inkscape.org/) -->

<svg
   xmlns:dc="http://purl.org/dc/elements/1.1/"
   xmlns:cc="http://creativecommons.org/ns#"
   xmlns:rdf="http://www.w3.org/1999/02/22-rdf-syntax-ns#"
   xmlns:svg="http://www.w3.org/2000/svg"
   xmlns="http://www.w3.org/2000/svg"
   xmlns:sodipodi="http://sodipodi.sourceforge.net/DTD/sodipodi-0.dtd"
   xmlns:inkscape="http://www.inkscape.org/namespaces/inkscape"
   id="svg8714"
   version="1.1"
   inkscape:version="0.91 r13725"
   xml:space="preserve"
   width="297mm"
   height="210mm"
   viewBox="0 0 1052.3622 744.0945"
   sodipodi:docname="conseil.svg"><metadata
     id="metadata8720"><rdf:RDF><cc:Work
         rdf:about=""><dc:format>image/svg+xml</dc:format><dc:type
           rdf:resource="http://purl.org/dc/dcmitype/StillImage" /><dc:title /></cc:Work></rdf:RDF></metadata><defs
     id="defs8718" /><sodipodi:namedview
     pagecolor="#ffffff"
     bordercolor="#666666"
     borderopacity="1"
     objecttolerance="10"
     gridtolerance="10"
     guidetolerance="10"
     inkscape:pageopacity="0"
     inkscape:pageshadow="2"
     inkscape:window-width="1920"
     inkscape:window-height="1024"
     id="namedview8716"
     showgrid="false"
     inkscape:zoom="0.62664489"
     inkscape:cx="-122.4773"
     inkscape:cy="266.61073"
     inkscape:window-x="0"
     inkscape:window-y="19"
     inkscape:window-maximized="1"
     inkscape:current-layer="g8722"
     units="mm" /><g
     id="g8722"
     inkscape:groupmode="layer"
     inkscape:label="conseil"
     transform="matrix(1.25,0,0,-1.25,0,744.09451)"><path
       inkscape:connector-curvature="0"
       id="path8730"
       style="fill:#ce5c00;fill-opacity:1;fill-rule:nonzero;stroke:none"
       d="m 264.41541,181.27461 0,-29.0928 c 0,-3.9376 -1.4384,-7.3504 -4.32,-10.2256 -2.88,-2.8816 -6.2864,-4.3184 -10.224,-4.3184 l -116.3696,0 c -3.9376,0 -7.3424,1.4368 -10.224,4.3184 -2.8752,2.8752 -4.3184,6.288 -4.3184,10.2256 l 0,29.0928 c 0,3.9376 1.4432,7.3504 4.3184,10.2256 2.8816,2.8816 6.2864,4.3184 10.224,4.3184 l 14.5504,0 0,87.2752 -14.5504,0 c -3.9376,0 -7.3424,1.4368 -10.224,4.3184 -2.8752,2.8752 -4.3184,6.288 -4.3184,10.2256 l 0,29.088 c 0,3.9424 1.4432,7.3488 4.3184,10.2304 2.8816,2.8752 6.2864,4.3184 10.224,4.3184 l 87.2752,0 c 3.9376,0 7.3504,-1.4432 10.2256,-4.3184 2.8816,-2.8816 4.3184,-6.288 4.3184,-10.2304 l 0,-130.9072 14.5504,0 c 3.9376,0 7.344,-1.4368 10.224,-4.3184 2.8816,-2.8752 4.32,-6.288 4.32,-10.2256 z m -29.0944,261.8192 0,-43.6368 c 0,-3.9376 -1.4368,-7.3504 -4.3184,-10.232 -2.8752,-2.8752 -6.288,-4.312 -10.2256,-4.312 l -58.1808,0 c -3.9376,0 -7.3504,1.4368 -10.2256,4.312 -2.88,2.8816 -4.3184,6.2944 -4.3184,10.232 l 0,43.6368 c 0,3.9376 1.4384,7.344 4.3184,10.2256 2.8752,2.88 6.288,4.3184 10.2256,4.3184 l 58.1808,0 c 3.9376,0 7.3504,-1.4384 10.2256,-4.3184 2.8816,-2.8816 4.3184,-6.288 4.3184,-10.2256 z" /><text
       xml:space="preserve"
       style="font-style:normal;font-variant:normal;font-weight:normal;font-stretch:normal;font-size:90px;line-height:100%;font-family:'Linux Libertine O';-inkscape-font-specification:'Linux Libertine O';text-align:start;letter-spacing:0px;word-spacing:0px;writing-mode:lr-tb;text-anchor:start;fill:#000000;fill-opacity:1;stroke:none;stroke-width:1px;stroke-linecap:butt;stroke-linejoin:miter;stroke-opacity:1;"
       x="358.80627"
       y="-358.03101"
       id="text10362"
       sodipodi:linespacing="100%"
       transform="scale(1,-1)"><tspan
         sodipodi:role="line"
         id="tspan10364"
         x="358.80627"
         y="-358.03101">Conseil</tspan></text>
<text
       xml:space="preserve"
       style="font-style:normal;font-variant:normal;font-weight:normal;font-stretch:normal;font-size:40px;line-height:100%;font-family:'Linux Libertine O';-inkscape-font-specification:'Linux Libertine O';text-align:start;letter-spacing:0px;word-spacing:0px;writing-mode:lr-tb;text-anchor:start;fill:#204a87;fill-opacity:1;stroke:none;stroke-width:1px;stroke-linecap:butt;stroke-linejoin:miter;stroke-opacity:1"
       x="358.80627"
       y="-242.8446"
       id="text10371"
       sodipodi:linespacing="100%"
       transform="scale(1,-1)"><tspan
         sodipodi:role="line"
         id="tspan10373"
         x="358.80627"
         y="-242.8446">Software craftmanship</tspan><tspan
         sodipodi:role="line"
         x="358.80627"
         y="-202.8446"
         id="tspan10375">Logiciel libre</tspan><tspan
         sodipodi:role="line"
         x="358.80627"
         y="-162.8446"
         id="tspan10377">Architecture informatique</tspan></text>
</g></svg>