<?xml version="1.0" encoding="UTF-8" standalone="no"?>
<!-- Created with Inkscape (http://www.inkscape.org/) -->

<svg
   xmlns:dc="http://purl.org/dc/elements/1.1/"
   xmlns:cc="http://creativecommons.org/ns#"
   xmlns:rdf="http://www.w3.org/1999/02/22-rdf-syntax-ns#"
   xmlns:svg="http://www.w3.org/2000/svg"
   xmlns="http://www.w3.org/2000/svg"
   xmlns:sodipodi="http://sodipodi.sourceforge.net/DTD/sodipodi-0.dtd"
   xmlns:inkscape="http://www.inkscape.org/namespaces/inkscape"
   id="svg2"
   version="1.1"
   inkscape:version="0.91 r13725"
   xml:space="preserve"
   width="297mm"
   height="210mm"
   viewBox="0 0 1052.3622 744.0945"
   sodipodi:docname="facilitation.svg"><metadata
     id="metadata8"><rdf:RDF><cc:Work
         rdf:about=""><dc:format>image/svg+xml</dc:format><dc:type
           rdf:resource="http://purl.org/dc/dcmitype/StillImage" /><dc:title></dc:title></cc:Work></rdf:RDF></metadata><defs
     id="defs6" /><sodipodi:namedview
     pagecolor="#ffffff"
     bordercolor="#666666"
     borderopacity="1"
     objecttolerance="10"
     gridtolerance="10"
     guidetolerance="10"
     inkscape:pageopacity="0"
     inkscape:pageshadow="2"
     inkscape:window-width="1920"
     inkscape:window-height="1024"
     id="namedview4"
     showgrid="false"
     inkscape:zoom="0.63429569"
     inkscape:cx="871.04722"
     inkscape:cy="390.43123"
     inkscape:window-x="0"
     inkscape:window-y="19"
     inkscape:window-maximized="1"
     inkscape:current-layer="g10"
     units="mm" /><g
     id="g10"
     inkscape:groupmode="layer"
     inkscape:label="facilitation"
     transform="matrix(1.25,0,0,-1.25,0,744.09451)"><path
       inkscape:connector-curvature="0"
       id="path16"
       style="fill:#4e9a06;fill-opacity:1;fill-rule:nonzero;stroke:none"
       d="m 202.92942,457.63781 c 21.6688,0 42.3808,-4.2256 62.144,-12.6816 19.7616,-8.4496 36.7872,-19.8192 51.0688,-34.1056 14.288,-14.2816 25.656,-31.3072 34.1056,-51.0688 8.456,-19.7632 12.6816,-40.4752 12.6816,-62.144 0,-21.6688 -4.2256,-42.3808 -12.6816,-62.144 -8.4496,-19.7616 -19.8176,-36.7808 -34.1056,-51.0688 -14.2816,-14.288 -31.3072,-25.656 -51.0688,-34.1056 -19.7632,-8.456 -40.4752,-12.6816 -62.144,-12.6816 -21.6688,0 -42.3808,4.2256 -62.144,12.6816 -19.7616,8.4496 -36.7872,19.8176 -51.068801,34.1056 -14.288,14.288 -25.656,31.3072 -34.1056,51.0688 -8.456,19.7632 -12.6816,40.4752 -12.6816,62.144 0,21.6688 4.2256,42.3808 12.6816,62.144 8.4496,19.7616 19.8176,36.7872 34.1056,51.0688 14.281601,14.2864 31.307201,25.656 51.068801,34.1056 19.7632,8.456 40.4752,12.6816 62.144,12.6816 z m 0,-22.856 c -22.6192,0 -44.1056,-5.3568 -64.4624,-16.0752 l 34.6432,-34.6368 c 9.7568,3.3312 19.7008,5 29.8192,5 10.1184,0 20.0624,-1.6688 29.8192,-5 l 34.6432,34.6368 c -20.3568,10.7184 -41.8432,16.0752 -64.4624,16.0752 z m -121.068801,-201.6064 34.636801,34.6432 c -3.3312,9.7632 -5,19.7008 -5,29.8192 0,10.1184 1.6688,20.0624 5,29.8256 l -34.636801,34.6368 c -10.7184,-20.3568 -16.0752,-41.8432 -16.0752,-64.4624 0,-22.6192 5.3568,-44.1056 16.0752,-64.4624 z m 121.068801,-72.6816 c 22.6192,0 44.1056,5.3568 64.4624,16.0752 l -34.6432,34.6432 c -9.7568,-3.3376 -19.7008,-5 -29.8192,-5 -10.1184,0 -20.0624,1.6624 -29.8192,5 l -34.6432,-34.6432 c 20.3568,-10.7184 41.8432,-16.0752 64.4624,-16.0752 z m 0,68.576 c 18.9312,0 35.088,6.6928 48.4816,20.0864 13.3936,13.3936 20.0864,29.5568 20.0864,48.4816 0,18.9312 -6.6928,35.088 -20.0864,48.4816 -13.3936,13.3936 -29.5504,20.0864 -48.4816,20.0864 -18.9312,0 -35.088,-6.6928 -48.4816,-20.0864 -13.3936,-13.3936 -20.0864,-29.5504 -20.0864,-48.4816 0,-18.9248 6.6928,-35.088 20.0864,-48.4816 13.3936,-13.3936 29.5504,-20.0864 48.4816,-20.0864 z m 86.432,38.7488 34.6368,-34.6432 c 10.7184,20.3568 16.0752,41.8432 16.0752,64.4624 0,22.6192 -5.3568,44.1056 -16.0752,64.4624 l -34.6368,-34.6368 c 3.3312,-9.7632 5,-19.7072 5,-29.8256 0,-10.1184 -1.6688,-20.056 -5,-29.8192 z" /><g
       id="g4522"
       transform="translate(0,-11.288051)"><text
         transform="scale(1,-1)"
         sodipodi:linespacing="100%"
         id="text4508"
         y="-372.12357"
         x="401.07474"
         style="font-style:normal;font-variant:normal;font-weight:normal;font-stretch:normal;font-size:90px;line-height:100%;font-family:'Linux Libertine O';-inkscape-font-specification:'Linux Libertine O';text-align:start;letter-spacing:0px;word-spacing:0px;writing-mode:lr-tb;text-anchor:start;fill:#000000;fill-opacity:1;stroke:none;stroke-width:1px;stroke-linecap:butt;stroke-linejoin:miter;stroke-opacity:1"
         xml:space="preserve"><tspan
           y="-372.12357"
           x="401.07474"
           id="tspan4510"
           sodipodi:role="line">Facilitation</tspan></text>
<text
         transform="scale(1,-1)"
         sodipodi:linespacing="100%"
         id="text4512"
         y="-272.42816"
         x="401.07474"
         style="font-style:normal;font-variant:normal;font-weight:normal;font-stretch:normal;font-size:40px;line-height:100%;font-family:'Linux Libertine O';-inkscape-font-specification:'Linux Libertine O';text-align:start;letter-spacing:0px;word-spacing:0px;writing-mode:lr-tb;text-anchor:start;fill:#204a87;fill-opacity:1;stroke:none;stroke-width:1px;stroke-linecap:butt;stroke-linejoin:miter;stroke-opacity:1"
         xml:space="preserve"><tspan
           y="-272.42816"
           x="401.07474"
           id="tspan4514"
           sodipodi:role="line"> Serious games</tspan><tspan
           id="tspan4516"
           y="-232.42816"
           x="401.07474"
           sodipodi:role="line"> Lego</tspan><tspan
           id="tspan4518"
           y="-192.42816"
           x="401.07474"
           sodipodi:role="line"> Intelligence collective</tspan><tspan
           id="tspan4520"
           y="-152.42816"
           x="401.07474"
           sodipodi:role="line" /></text>
</g></g></svg>