<?xml version="1.0" encoding="UTF-8" standalone="no"?>
<!-- Created with Inkscape (http://www.inkscape.org/) -->

<svg
   xmlns:dc="http://purl.org/dc/elements/1.1/"
   xmlns:cc="http://creativecommons.org/ns#"
   xmlns:rdf="http://www.w3.org/1999/02/22-rdf-syntax-ns#"
   xmlns:svg="http://www.w3.org/2000/svg"
   xmlns="http://www.w3.org/2000/svg"
   xmlns:sodipodi="http://sodipodi.sourceforge.net/DTD/sodipodi-0.dtd"
   xmlns:inkscape="http://www.inkscape.org/namespaces/inkscape"
   id="svg2"
   version="1.1"
   inkscape:version="0.91 r13725"
   xml:space="preserve"
   width="297mm"
   height="210mm"
   viewBox="0 0 1052.3622 744.0945"
   sodipodi:docname="formation.svg"><metadata
     id="metadata8"><rdf:RDF><cc:Work
         rdf:about=""><dc:format>image/svg+xml</dc:format><dc:type
           rdf:resource="http://purl.org/dc/dcmitype/StillImage" /><dc:title></dc:title></cc:Work></rdf:RDF></metadata><defs
     id="defs6" /><sodipodi:namedview
     pagecolor="#ffffff"
     bordercolor="#666666"
     borderopacity="1"
     objecttolerance="10"
     gridtolerance="10"
     guidetolerance="10"
     inkscape:pageopacity="0"
     inkscape:pageshadow="2"
     inkscape:window-width="1920"
     inkscape:window-height="1024"
     id="namedview4"
     showgrid="false"
     units="mm"
     inkscape:zoom="0.89702957"
     inkscape:cx="648.83722"
     inkscape:cy="301.67335"
     inkscape:window-x="0"
     inkscape:window-y="19"
     inkscape:window-maximized="1"
     inkscape:current-layer="g10" /><g
     id="g10"
     inkscape:groupmode="layer"
     inkscape:label="formation"
     transform="matrix(1.25,0,0,-1.25,0,744.09451)"><path
       id="path4429"
       d="m 285.58187,305.97115 2.5,-43.88889 q 0.55556,-9.58333 -11.38889,-17.77778 -11.94444,-8.19444 -32.63888,-12.98611 -20.69446,-4.79166 -44.86112,-4.79166 -24.16667,0 -44.86111,4.79166 -20.69445,4.79167 -32.63889,12.98611 -11.94444,8.19445 -11.38889,17.77778 l 2.5,43.88889 79.72222,-25.13889 q 3.05556,-0.97222 6.66667,-0.97222 3.61111,0 6.66666,0.97222 z m 73.61113,45 q 0,-3.19445 -3.0556,-4.30556 L 200.58187,297.7767 q -0.55556,-0.13888 -1.38889,-0.13888 -0.83334,0 -1.38889,0.13888 l -90.55554,28.61112 q -5.97224,-4.72223 -9.86113,-15.48612 -3.888875,-10.76388 -4.722215,-24.79166 8.749995,-5 8.749995,-15.13889 0,-9.58333 -8.055545,-14.86111 l 8.055545,-60.13889 q 0.27779,-1.94444 -1.11111,-3.47222 -1.24999,-1.52778 -3.33332,-1.52778 l -26.666678,0 q -2.08333,0 -3.33333,1.52778 -1.38889,1.52778 -1.11111,3.47222 l 8.05555,60.13889 q -8.05555,5.27778 -8.05555,14.86111 0,10.13889 9.02778,15.41667 1.52777,28.75 13.611113,45.83333 l -46.250006,14.44444 q -3.05556,1.11111 -3.05556,4.30556 0,3.19444 3.05556,4.30556 l 155.555551,48.88888 q 0.55555,0.13889 1.38889,0.13889 0.83333,0 1.38889,-0.13889 L 356.1374,355.27671 q 3.0556,-1.11112 3.0556,-4.30556 z"
       inkscape:connector-curvature="0"
       style="fill:#204a87" /><text
       xml:space="preserve"
       style="font-style:normal;font-variant:normal;font-weight:normal;font-stretch:normal;font-size:40px;line-height:100%;font-family:'Linux Libertine O';-inkscape-font-specification:'Linux Libertine O';text-align:start;letter-spacing:0px;word-spacing:0px;writing-mode:lr-tb;text-anchor:start;fill:#000000;fill-opacity:1;stroke:none;stroke-width:1px;stroke-linecap:butt;stroke-linejoin:miter;stroke-opacity:1"
       x="442.34882"
       y="-306.79034"
       id="text4442"
       sodipodi:linespacing="100%"
       transform="scale(1,-1)"><tspan
         sodipodi:role="line"
         x="442.34882"
         y="-306.79034"
         id="tspan4450" /></text>
<g
       id="g4532"
       transform="translate(0,8.1315785)"><text
         transform="scale(1,-1)"
         sodipodi:linespacing="100%"
         id="text4438"
         y="-416.927"
         x="414.30814"
         style="font-style:normal;font-variant:normal;font-weight:normal;font-stretch:normal;font-size:90px;line-height:100%;font-family:'Linux Libertine O';-inkscape-font-specification:'Linux Libertine O';text-align:start;letter-spacing:0px;word-spacing:0px;writing-mode:lr-tb;text-anchor:start;fill:#000000;fill-opacity:1;stroke:none;stroke-width:1px;stroke-linecap:butt;stroke-linejoin:miter;stroke-opacity:1"
         xml:space="preserve"><tspan
           y="-416.927"
           x="414.30814"
           id="tspan4440"
           sodipodi:role="line">Formation</tspan></text>
<flowRoot
         transform="matrix(0.8,0,0,-0.8,-1.2856466,622.3467)"
         style="font-style:normal;font-variant:normal;font-weight:normal;font-stretch:normal;font-size:50px;line-height:100%;font-family:'Linux Libertine O';-inkscape-font-specification:'Linux Libertine O';text-align:start;letter-spacing:0px;word-spacing:0px;writing-mode:lr-tb;text-anchor:start;fill:#a40000;fill-opacity:1;stroke:none;stroke-width:1px;stroke-linecap:butt;stroke-linejoin:miter;stroke-opacity:1"
         id="flowRoot4473"
         xml:space="preserve"><flowRegion
           id="flowRegion4475"><rect
             style="font-size:50px;fill:#a40000"
             y="347.22906"
             x="519.49231"
             height="332.20755"
             width="564.08386"
             id="rect4477" /></flowRegion><flowPara
           id="flowPara4479">Méthodes agiles</flowPara><flowPara
           id="flowPara4481">Devops</flowPara><flowPara
           id="flowPara4485">Software caftmanship</flowPara><flowPara
           id="flowPara4487">Intelligence collective</flowPara><flowPara
           id="flowPara4489">Lean startup</flowPara><flowPara
           id="flowPara4514">Leadership agile</flowPara><flowPara
           id="flowPara4491" /></flowRoot></g></g></svg>