<svg xmlns="http://www.w3.org/2000/svg" viewBox="0 0 195 30"><defs><style>.a{fill:#00b290;}.b{fill:#4a835b;}.c{fill:#fff;}.d{fill:#00985f;}.e{fill:#e0001a;}</style></defs><path class="a" d="M111.721,21.995a2.395,2.395,0,0,1-4.778.079,2.324,2.324,0,0,1,1.125-2.134,2.438,2.438,0,0,1,2.455-.041,2.328,2.328,0,0,1,1.2,2.1Z"/><path class="a" d="M109.347,16.587a2.32,2.32,0,0,1-.046-4.638,2.39,2.39,0,0,1,2.163,1.105,2.278,2.278,0,0,1,.024,2.386,2.387,2.387,0,0,1-2.14,1.146Z"/><path class="a" d="M131.075,17.006c0,5.957-4.367,9.882-10.563,9.882H114.1V7.124h6.37c6.058,0,10.609,3.715,10.609,9.882Zm-12.532-5.6V22.6h2.316c3.475,0,5.791-2.135,5.791-5.561a5.513,5.513,0,0,0-5.444-5.663h-2.693Z"/><path class="a" d="M136.1,6.875a2.334,2.334,0,1,1-2.386,2.333A2.36,2.36,0,0,1,136.1,6.875Zm2.212,5.663V26.893h-4.4V12.538Z"/><path class="a" d="M145.686,12.538l.191,1.976a6.111,6.111,0,0,1,4.477-2.373v4.3c-2.05,0-3.8.736-4.477,2.344v8.109h-4.4V12.538Z"/><path class="a" d="M165.573,19.724v1.37h-10.3a3.467,3.467,0,0,0,3.411,2.452,4.1,4.1,0,0,0,3.26-1.212l2.994,2.265a9.021,9.021,0,0,1-6.254,2.662c-4.905,0-7.3-4-7.3-7.537,0-3.636,2.832-7.617,7.3-7.617,4.633.023,6.886,4.479,6.886,7.617Zm-10.135-1.9h6.226a3.239,3.239,0,0,0-2.977-2.214,3.4,3.4,0,0,0-3.249,2.214Z"/><path class="a" d="M181.047,24.175a7.864,7.864,0,0,1-8.609,2.8,7.542,7.542,0,0,1-.3-14.4,7.874,7.874,0,0,1,8.719,2.453L177.648,17.4a3.633,3.633,0,0,0-4.1-1.178,3.5,3.5,0,0,0-2.338,3.5,3.546,3.546,0,0,0,2.524,3.468,3.662,3.662,0,0,0,4.107-1.412Z"/><path class="a" d="M188.025,9.236v3.3h3.828v4h-3.828v6.082c0,.527.133.844.458.844.486,0,1.158-.951,1.373-1.263l3.1,2.265c-1.535,1.925-2.722,2.831-4.477,2.831-2.4,0-4.853-1.5-4.853-4.428V16.536h-1.772v-4h1.778v-3.3Z"/><path class="b" d="M25.952,8.864H23.82l-.518.651c-.091.091-.061.188.03.218l.7.308,1.98-.924A.133.133,0,0,0,25.952,8.864Z"/><circle class="c" cx="21.318" cy="9.607" r="0.591" transform="translate(-0.538 17.918) rotate(-45.078)"/><path class="d" d="M18.038,19.326H15.414a13.284,13.284,0,0,1-1.831.86c-.065.028-.091.041-.06.131l2.345,6.506h1.281L15,20.895h.058c1.4,0,4.741-.349,6.549-3.27A4.279,4.279,0,0,1,18.038,19.326Zm.372-3.891c.144-.218.281-.459.411-.685-.06-.032-.114-.07-.174-.007A9.319,9.319,0,0,1,11.3,17.931H8.216c-.093,0-.17-.084-.1-.175a45.176,45.176,0,0,1,6.975-7.536L9.925,14.564a2.316,2.316,0,0,1-1.557.577h-6.5c-.184,0-.123.133-.093.224a3.777,3.777,0,0,0,3.814,2.644L4.068,19.6c-.06.06-.06.249.091.249h5.8A9.459,9.459,0,0,0,18.41,15.434Zm-1.715,6.558,1.738,4.83h1.283l-1.836-5.1A8.792,8.792,0,0,1,16.695,21.993ZM25.968,8.864H23.832l-.518.648c-.091.093-.06.187.03.217l.7.306,1.982-.919A.132.132,0,0,0,25.968,8.864Zm-4.232,1.161a.591.591,0,1,1,0-.839,1.063,1.063,0,1,0,.007.007A.59.59,0,0,1,21.736,10.025Z"/><circle class="c" cx="21.357" cy="9.58" r="0.499" transform="translate(-0.519 17.908) rotate(-45)"/><path class="e" d="M21.605,17.625a23.185,23.185,0,0,0,2.44-7.576l-.7-.31c-.091-.03-.121-.124-.03-.217l.518-.643a3.729,3.729,0,0,0-3.2-1.676,4.793,4.793,0,0,0-2.7.79,34.078,34.078,0,0,0-2.847,2.245,44.967,44.967,0,0,0-6.975,7.519c-.065.091.012.175.1.175H11.3a9.335,9.335,0,0,0,7.351-3.2.126.126,0,0,1,.174-.02.147.147,0,0,1,.04.19,9.632,9.632,0,0,1-3.446,4.424h2.624A4.279,4.279,0,0,0,21.605,17.625Zm-1.374-6.93a1.064,1.064,0,1,1,1.5,0A1.065,1.065,0,0,1,20.232,10.695Zm2.456,7.576a7.7,7.7,0,0,1-3.656,3.062L21,26.823H26.73C25.584,23.51,24.357,20.254,23.2,17.3,23.044,17.621,22.872,17.974,22.688,18.271ZM1.465,26.823h5.8l1.876-5.754H3.482C2.841,22.813,2.162,24.731,1.465,26.823ZM9.1,13.539l3.347-2.777C13,9.27,13.569,7.793,14.164,6.519c.3.679.579,1.365.874,2.088,1.292-1.067,2.14-1.643,2.182-1.671l.019-.01a6.109,6.109,0,0,1,1.717-.8c-.762-1.666-1.3-2.842-1.559-3.365H10.9C10.359,3.982,8.34,8.167,5.978,13.746H8.368A1.036,1.036,0,0,0,9.1,13.539Z"/><path class="e" d="M33.947,23.447a1.98,1.98,0,0,1-2.222-2.132V12.351H27.017v9.6c0,3.533,1.576,5.27,4.9,5.27"/><path class="e" d="M36.258,22.413a3.359,3.359,0,0,1-2.313,1.009,1.981,1.981,0,0,1-2.221-2.141v-9.1H27.017v9.747c0,3.548,1.563,5.291,4.9,5.291a6.067,6.067,0,0,0,4.942-1.97l.292,1.578h3.818V12.177H36.258Zm14.961.733c-2.355,0-3.58-1.467-3.58-3.7,0-2.14,1.224-3.456,3.549-3.456a5.541,5.541,0,0,1,3.15.917l.674-4.008a11.556,11.556,0,0,0-4.986-.979c-4.741,0-7.342,2.723-7.342,7.709,0,5.016,2.447,7.586,7.22,7.586A11.135,11.135,0,0,0,55.318,25.9l-.673-3.732A7.2,7.2,0,0,1,51.219,23.146ZM65.809,11.92a6.588,6.588,0,0,0-4.268,1.254v-6.4H56.658V26.823h4.882v-10.1a3.141,3.141,0,0,1,2.225-1.009A1.916,1.916,0,0,1,65.9,17.855v8.968h4.882V17.212C70.782,13.664,69.143,11.92,65.809,11.92Zm32.119,0a6.122,6.122,0,0,0-4.976,1.9l-.326-1.646H88.741V26.823h4.882v-10.1a3.141,3.141,0,0,1,2.225-1.009,1.916,1.916,0,0,1,2.134,2.141v8.968h4.882V17.212C102.864,13.664,101.231,11.92,97.928,11.92Zm-25.492,8.2c0,4.956,1.835,7.1,5.385,7.1a5.167,5.167,0,0,0,4.5-1.97l.245,1.578h3.913V12.837a20.344,20.344,0,0,0-6.683-.917C75.049,11.92,72.436,14.826,72.436,20.119Zm9.156,2.294a3.1,3.1,0,0,1-2.308,1.009c-1.284,0-1.995-1.193-1.995-3.487,0-2.814.776-4.221,2.3-4.221a7.82,7.82,0,0,1,2,.214Z"/></svg>