<?xml version="1.0" encoding="UTF-8" standalone="no"?>
<!-- Created with Inkscape (http://www.inkscape.org/) -->

<svg
   xmlns:dc="http://purl.org/dc/elements/1.1/"
   xmlns:cc="http://creativecommons.org/ns#"
   xmlns:rdf="http://www.w3.org/1999/02/22-rdf-syntax-ns#"
   xmlns:svg="http://www.w3.org/2000/svg"
   xmlns="http://www.w3.org/2000/svg"
   xmlns:sodipodi="http://sodipodi.sourceforge.net/DTD/sodipodi-0.dtd"
   xmlns:inkscape="http://www.inkscape.org/namespaces/inkscape"
   width="3000.2"
   height="1307.108"
   id="svg3112"
   version="1.1"
   inkscape:version="0.91 r13725"
   sodipodi:docname="logo-azae.svg"
   inkscape:export-filename="/home/tom/Documents/Azaé/libre_entreprise/communication/logo/logo.png"
   inkscape:export-xdpi="126.67"
   inkscape:export-ydpi="126.67">
  <defs
     id="defs3114" />
  <sodipodi:namedview
     id="base"
     pagecolor="#ffffff"
     bordercolor="#666666"
     borderopacity="1.0"
     inkscape:pageopacity="0.0"
     inkscape:pageshadow="2"
     inkscape:zoom="1.979899"
     inkscape:cx="1441.0822"
     inkscape:cy="625.31605"
     inkscape:document-units="px"
     inkscape:current-layer="layer1"
     showgrid="false"
     fit-margin-top="0.1"
     fit-margin-left="0.1"
     fit-margin-right="0.1"
     fit-margin-bottom="0.1"
     inkscape:window-width="1920"
     inkscape:window-height="1024"
     inkscape:window-x="0"
     inkscape:window-y="19"
     inkscape:window-maximized="1" />
  <metadata
     id="metadata3117">
    <rdf:RDF>
      <cc:Work
         rdf:about="">
        <dc:format>image/svg+xml</dc:format>
        <dc:type
           rdf:resource="http://purl.org/dc/dcmitype/StillImage" />
        <dc:title></dc:title>
      </cc:Work>
    </rdf:RDF>
  </metadata>
  <g
     inkscape:label="Calque 1"
     inkscape:groupmode="layer"
     id="layer1"
     transform="translate(1032.156,211.48391)">
    <path
       inkscape:connector-curvature="0"
       id="path3898-4-29"
       style="fill:#ce5c00;fill-opacity:1;fill-rule:nonzero;stroke:#ce5c00;stroke-width:10.55578613"
       d="m 1415.3266,417.63549 c 65.3931,65.72296 35.7973,214.24287 -80.2372,349.80555 C 1197.9961,927.45356 994.17711,1010.7783 903.028,924.6035 824.47965,850.21159 874.34255,687.85041 996.27518,555.26974 820.95666,723.91162 736.68191,952.02215 841.64611,1050.4285 c 112.26067,105.0432 362.26129,-8.9856 524.49049,-210.19212 133.1086,-165.23764 164.037,-340.08103 88.5894,-416.26742 -29.3186,-29.51662 -71.3967,-42.75093 -120.5734,-41.28632 32.525,2.81048 60.643,14.30309 81.174,34.95285" />
    <path
       inkscape:connector-curvature="0"
       id="path3896-6-0"
       style="fill:#204a87;fill-opacity:1;fill-rule:nonzero;stroke:#204a87;stroke-width:10.55578613"
       d="m 1313.1868,263.46327 c 47.0788,-38.96404 205.3893,55.15399 353.7641,205.61352 145.5511,147.76781 239.1809,307.05462 209.9018,361.04746 -26.3631,48.82051 -143.8358,-2.2431 -280.0582,-119.83456 174.5795,161.33199 329.9738,234.28567 360.5328,171.18846 31.0604,-63.95487 -78.1128,-247.995 -245.1581,-418.0619 -170.5023,-173.56351 -353.1834,-283.5548 -408.0472,-239.77468 -22.1935,17.62817 -19.924,57.76654 2.4938,112.11564 -10.305,-34.20074 -8.8141,-59.52143 6.5711,-72.29394" />
    <path
       inkscape:connector-curvature="0"
       id="path3900-6-1"
       style="fill:#4e9a06;fill-opacity:1;fill-rule:nonzero;stroke:#4e9a06;stroke-width:10.55578613"
       d="m 1212.8512,355.76127 c -71.687,-71.35711 -23.2491,-206.60312 92.3235,-289.492426 100.8078,-72.1751859 217.9903,-77.941284 272.6957,-21.335882 46.4718,48.06841 40.4286,132.461918 -14.0656,208.819838 77.1892,-92.37632 89.0644,-199.214073 31.8257,-258.7750948 C 1533.0083,-70.098715 1398.2636,-67.195874 1280.3686,12.170441 1141.5732,105.23289 1080.3893,263.30578 1166.155,348.60973 c 33.0924,32.64377 81.5171,46.55101 135.4967,43.74054 -35.309,-2.41464 -66.3827,-14.25032 -88.8004,-36.589" />
    <path
       inkscape:connector-curvature="0"
       id="path3894-3-3"
       style="fill:#a40000;fill-opacity:1;fill-rule:nonzero;stroke:#a40000;stroke-width:10.55578613;stroke-linecap:butt"
       d="M 1324.6582,500.02086 C 1274.8086,550.62266 1086.1106,450.44826 902.71713,269.56167 715.00877,84.861805 623.18662,-94.863644 696.43058,-126.05599 755.38465,-150.98084 902.30799,-70.242274 1045.7479,56.77022 863.34395,-114.78769 664.01113,-230.82217 584.55245,-201.54306 491.80678,-167.1048 599.7,48.140865 827.36191,271.36935 1049.0466,488.83173 1275.9696,606.8982 1335.0029,544.56628 c 21.5997,-22.72133 17.7996,-66.32992 -5.5946,-121.81377 11.0044,34.88687 10.2655,62.00205 -4.7501,77.26835" />
    <path
       inkscape:connector-curvature="0"
       style="font-style:normal;font-variant:normal;font-weight:normal;font-stretch:normal;font-size:64px;line-height:100%;font-family:'DejaVu Sans';-inkscape-font-specification:'DejaVu Sans';text-align:start;writing-mode:lr-tb;text-anchor:start;fill:#000000;fill-opacity:1;stroke:#000000;stroke-width:11.05879021;stroke-miterlimit:4;stroke-dasharray:none;stroke-opacity:1"
       id="path4367-3"
       d="m -854.7259,583.1405 226.69733,0 c -127.86931,-362.22464 -98.96419,-352.11653 -226.69733,0 z m 66.06835,-388.97807 94.56052,0 234.95596,616.50128 -86.71483,0 -56.15815,-158.15132 -277.90049,0 -56.15815,158.15132 -87.95361,0 235.36875,-616.50128"
       sodipodi:nodetypes="cccccccccccc" />
    <path
       inkscape:connector-curvature="0"
       style="font-style:normal;font-variant:normal;font-weight:normal;font-stretch:normal;font-size:64px;line-height:100%;font-family:'DejaVu Sans';-inkscape-font-specification:'DejaVu Sans';text-align:start;writing-mode:lr-tb;text-anchor:start;fill:#000000;fill-opacity:1;stroke:#000000;stroke-width:11.05879021;stroke-miterlimit:4;stroke-dasharray:none;stroke-opacity:1"
       id="path4369-0"
       d="m -414.52102,423.60605 302.04326,0 0,58.05862 -239.1464,278.19774 239.1464,0 0,50.8013 -310.68296,0 0,-58.05862 239.1464,-278.19773 -230.5067,0 0,-50.80131" />
    <path
       inkscape:connector-curvature="0"
       sodipodi:nodetypes="ccccccccccccccccc"
       style="font-style:normal;font-variant:normal;font-weight:normal;font-stretch:normal;font-size:64px;line-height:100%;font-family:'DejaVu Sans';-inkscape-font-specification:'DejaVu Sans';text-align:start;writing-mode:lr-tb;text-anchor:start;opacity:1;fill:#000000;fill-opacity:1;stroke:#000000;stroke-width:11.05879021;stroke-miterlimit:4;stroke-dasharray:none;stroke-opacity:1"
       id="path4371-9"
       d="M 149.71065,606.07527 C 87.842869,605.56965 18.67281,610.18664 13.203752,683.83235 13.532037,733.34448 51.194131,755.0344 96.144678,757.44239 184.02497,755.62648 211.27315,681.96905 212.9531,606.07527 l -63.24245,0 m 126.83051,-26.2647 0,220.83032 -63.58806,0 C 220.06718,689.20409 196.71609,799.19844 79.210875,810.66287 2.2620464,810.9067 -45.520091,762.87239 -50.384302,687.9794 -49.761511,585.80943 36.877107,559.80789 123.79165,556.31065 l 89.16145,0 c 0.55102,-69.82547 -48.20901,-90.05447 -109.8967,-98.14675 -44.104717,-0.53307 -86.200241,11.72305 -125.10264,31.79403 l 0,-58.74981 C 20.0135,414.5646 64.433409,405.25155 109.62252,404.25234 222.84747,402.4568 279.74526,473.65082 276.54116,579.81057" />
    <path
       inkscape:connector-curvature="0"
       style="font-style:normal;font-variant:normal;font-weight:normal;font-stretch:normal;font-size:64px;line-height:100%;font-family:'DejaVu Sans';-inkscape-font-specification:'DejaVu Sans';text-align:start;writing-mode:lr-tb;text-anchor:start;fill:#000000;fill-opacity:1;stroke:#000000;stroke-width:11.05879021;stroke-miterlimit:4;stroke-dasharray:none;stroke-opacity:1"
       sodipodi:nodetypes="ccccccccccccccczc"
       id="path4373-1"
       d="m 723.13862,591.21568 0,31.10283 -292.36677,0 c 4.17724,84.63334 56.64541,129.8178 138.23488,134.43342 49.18521,0.67768 95.77634,-14.06073 139.27167,-35.94108 l 0,60.1322 c -45.29446,19.80635 -93.86997,28.70593 -143.07313,29.72045 -123.75476,0.16995 -193.56756,-81.75013 -200.78624,-199.74935 -0.55735,-120.046 71.40556,-198.73009 189.72737,-206.66118 111.72096,0.7009 163.35849,84.75726 168.99222,186.96271 M 659.55057,572.55389 C 658.82961,507.30541 619.6744,462.63322 554.83759,458.16453 482.46639,457.83625 442.62801,505.18148 432.84533,572.89949 l 226.70524,-0.34518 M 460.84486,362.68998 C 461.41065,361.41622 644.39657,228.6371 669,279.18401 c 24.4111,50.15233 -124.02236,84.55058 -208.15514,83.50597 z" />
  </g>
</svg>
